<svg xmlns="http://www.w3.org/2000/svg" xmlns:xlink="http://www.w3.org/1999/xlink" viewBox="0 0 373 392.49"><defs><style>.cls-1,.cls-6{fill:none;}.cls-2{fill:#f2547d;}.cls-3{clip-path:url(#clip-path);}.cls-4{fill:#fd7a59;}.cls-5{fill:#33475b;}.cls-6{fill-rule:evenodd;}.cls-7{fill:#f4a9ad;}.cls-8{fill:#e09b89;}.cls-9{fill:#f9b7a2;}.cls-10{fill:#d19781;}.cls-11{fill:#e0baab;}.cls-12{fill:#9aacc2;}.cls-13{fill:#516f90;}</style><clipPath id="clip-path"><path class="cls-1" d="M373,186.5q0,9.17-.9,18.28t-2.68,18.1q-1.8,9-4.45,17.76t-6.17,17.23q-3.49,8.46-7.82,16.55t-9.41,15.69q-5.08,7.62-10.9,14.7t-12.29,13.57q-6.48,6.47-13.57,12.29t-14.7,10.9q-7.61,5.08-15.69,9.41t-16.55,7.82q-8.46,3.51-17.23,6.17t-17.76,4.45q-9,1.79-18.1,2.68t-18.28.9q-9.17,0-18.28-.9t-18.1-2.68q-9-1.8-17.76-4.45t-17.23-6.17q-8.46-3.49-16.55-7.82t-15.69-9.41q-7.62-5.08-14.7-10.9T54.62,318.38q-6.46-6.48-12.29-13.57t-10.9-14.7q-5.09-7.61-9.41-15.69T14.2,257.87Q10.69,249.41,8,240.64T3.58,222.88q-1.78-9-2.68-18.1T0,186.5q0-9.17.9-18.28t2.68-18.1q1.8-9,4.45-17.76t6.17-17.23q3.5-8.46,7.82-16.55t9.41-15.69q5.09-7.62,10.9-14.7T54.62,54.62q6.48-6.46,13.57-12.29t14.7-10.9q7.6-5.09,15.69-9.41t16.55-7.82q8.46-3.51,17.23-6.17t17.76-4.45q9-1.78,18.1-2.68T186.5,0q9.17,0,18.28.9t18.1,2.68q9,1.8,17.76,4.45t17.23,6.17q8.46,3.5,16.55,7.82t15.69,9.41q7.62,5.09,14.7,10.9t13.57,12.29q6.47,6.48,12.29,13.57t10.9,14.7q5.08,7.6,9.41,15.69t7.82,16.55q3.51,8.46,6.17,17.23t4.45,17.76q1.79,9,2.68,18.1T373,186.5Z"/></clipPath></defs><title>brioP2</title><g id="Layer_2" data-name="Layer 2"><g id="Layer_1-2" data-name="Layer 1"><path class="cls-2" d="M373,186.5q0,9.17-.9,18.28t-2.68,18.1q-1.8,9-4.45,17.76t-6.17,17.23q-3.49,8.46-7.82,16.55t-9.41,15.69q-5.08,7.62-10.9,14.7t-12.29,13.57q-6.48,6.47-13.57,12.29t-14.7,10.9q-7.61,5.08-15.69,9.41t-16.55,7.82q-8.46,3.51-17.23,6.17t-17.76,4.45q-9,1.79-18.1,2.68t-18.28.9q-9.17,0-18.28-.9t-18.1-2.68q-9-1.8-17.76-4.45t-17.23-6.17q-8.46-3.49-16.55-7.82t-15.69-9.41q-7.62-5.08-14.7-10.9T54.62,318.38q-6.46-6.48-12.29-13.57t-10.9-14.7q-5.09-7.61-9.41-15.69T14.2,257.87Q10.69,249.41,8,240.64T3.58,222.88q-1.78-9-2.68-18.1T0,186.5q0-9.17.9-18.28t2.68-18.1q1.8-9,4.45-17.76t6.17-17.23q3.5-8.46,7.82-16.55t9.41-15.69q5.09-7.62,10.9-14.7T54.62,54.62q6.48-6.46,13.57-12.29t14.7-10.9q7.6-5.09,15.69-9.41t16.55-7.82q8.46-3.51,17.23-6.17t17.76-4.45q9-1.78,18.1-2.68T186.5,0q9.17,0,18.28.9t18.1,2.68q9,1.8,17.76,4.45t17.23,6.17q8.46,3.5,16.55,7.82t15.69,9.41q7.62,5.09,14.7,10.9t13.57,12.29q6.47,6.48,12.29,13.57t10.9,14.7q5.08,7.6,9.41,15.69t7.82,16.55q3.51,8.46,6.17,17.23t4.45,17.76q1.79,9,2.68,18.1T373,186.5Z"/><g class="cls-3"><path class="cls-4" d="M174.56,216.62h23.88a97.81,97.81,0,0,1,97.81,97.8v75H76.75v-75A97.81,97.81,0,0,1,174.56,216.62Z"/><path class="cls-5" d="M79.87,386.26H293.13V314.42a94.79,94.79,0,0,0-94.69-94.69H174.56a94.79,94.79,0,0,0-94.69,94.69Zm216.38,6.23H76.75a3.11,3.11,0,0,1-3.11-3.11v-75A101,101,0,0,1,174.56,213.5h23.88A101,101,0,0,1,299.36,314.42v75A3.11,3.11,0,0,1,296.25,392.49Z"/><path class="cls-5" d="M131.71,392.49a3.11,3.11,0,0,1-3.11-3.11V337.3a3.12,3.12,0,1,1,6.23,0v52.08A3.12,3.12,0,0,1,131.71,392.49Z"/><path class="cls-5" d="M241.29,392.49a3.12,3.12,0,0,1-3.12-3.11V337.3a3.12,3.12,0,1,1,6.23,0v52.08A3.11,3.11,0,0,1,241.29,392.49Z"/></g><path class="cls-6" d="M0,186.5a186.28,186.28,0,1,1,3.58,36.38A185.89,185.89,0,0,1,0,186.5Z"/><path class="cls-7" d="M264.46,166a16.3,16.3,0,0,1-7,1.59,17.13,17.13,0,0,1-2.39-.17c.78-.22,1.58-.42,2.39-.57A38.61,38.61,0,0,1,264.46,166Z"/><path class="cls-5" d="M257.42,170.74a21,21,0,0,1-2.82-.2,3.12,3.12,0,0,1-.41-6.09c1-.28,1.84-.48,2.64-.63a40.86,40.86,0,0,1,7.55-.9,3.08,3.08,0,0,1,3.11,2.39,3.12,3.12,0,0,1-1.7,3.54A19.43,19.43,0,0,1,257.42,170.74Z"/><path class="cls-8" d="M274,151.33a16.29,16.29,0,0,1-16.29,16.3,16.31,16.31,0,0,1-6.24-1.24,16.42,16.42,0,0,1-8.82-8.82,16.28,16.28,0,0,1,3.54-17.76A16.29,16.29,0,0,1,274,151.33Z"/><path class="cls-5" d="M257.7,138.16a13.18,13.18,0,1,0,13.18,13.17A13.19,13.19,0,0,0,257.7,138.16Zm0,32.58a19.41,19.41,0,1,1,19.41-19.41A19.43,19.43,0,0,1,257.7,170.74Z"/><path class="cls-9" d="M257.87,133.24v36.19a71.12,71.12,0,0,1-142.24,0V133.24a71.12,71.12,0,0,1,142.24,0Z"/><path class="cls-5" d="M186.76,65.23a68.09,68.09,0,0,0-68,68v36.19a68,68,0,0,0,136,0V133.24a68,68,0,0,0-68-68Zm0,178.42a74.31,74.31,0,0,1-74.24-74.22V133.24a74.23,74.23,0,1,1,148.46,0v36.19A74.3,74.3,0,0,1,186.76,243.65Z"/><path class="cls-5" d="M161,151.32a8.74,8.74,0,1,1-8.75-8.72,7.77,7.77,0,0,1,2.39.35,4,4,0,0,0-1.58,3.27,4.28,4.28,0,0,0,4.28,4.29,4.18,4.18,0,0,0,3.34-1.58A8.32,8.32,0,0,1,161,151.32Z"/><path class="cls-5" d="M229.94,151.32a8.74,8.74,0,1,1-8.76-8.72,7.73,7.73,0,0,1,2.39.35,4.06,4.06,0,0,0-1.58,3.27,4.29,4.29,0,0,0,4.29,4.29,4.2,4.2,0,0,0,3.34-1.58A8.69,8.69,0,0,1,229.94,151.32Z"/><path class="cls-9" d="M181.81,151.33,176.2,169.7a5.71,5.71,0,0,0,5.46,7.37h7.72"/><path class="cls-5" d="M189.38,180.19h-7.72a8.82,8.82,0,0,1-8.44-11.41l5.61-18.36a3.12,3.12,0,1,1,6,1.82l-5.61,18.37a2.59,2.59,0,0,0,2.48,3.35h7.72a3.12,3.12,0,1,1,0,6.23Z"/><path class="cls-10" d="M238.45,181.83a3.18,3.18,0,1,1-.93-2.24A3.06,3.06,0,0,1,238.45,181.83Z"/><path class="cls-11" d="M125.28,117.43a1,1,0,0,1-.24,0h-1.18C124.34,117.46,124.81,117.45,125.28,117.43Z"/><path class="cls-5" d="M123.86,120.58a3.12,3.12,0,1,1,0-6.23c.45,0,.88,0,1.31,0a3.12,3.12,0,0,1,.72,6.17,3.74,3.74,0,0,1-.79.07C124.68,120.58,124.27,120.58,123.86,120.58Z"/><path class="cls-7" d="M99,108.69a40.19,40.19,0,0,0,14.81,7.48A38.72,38.72,0,0,1,99,108.69Z"/><path class="cls-5" d="M113.85,119.29a3,3,0,0,1-.78-.1,41.67,41.67,0,0,1-16-8.08,3.12,3.12,0,0,1,3.92-4.85,37.38,37.38,0,0,0,13.66,6.9,3.12,3.12,0,0,1-.79,6.13Z"/><path class="cls-7" d="M115.12,116.48c1.14.25,2.27.47,3.44.63l-1.48-.22C116.43,116.78,115.76,116.64,115.12,116.48Z"/><path class="cls-5" d="M118.57,120.22l-.39,0q-.81-.11-1.59-.24c-.73-.12-1.46-.27-2.21-.45a3.12,3.12,0,0,1,1.41-6.07c1.22.27,2.23.45,3.18.58a3.11,3.11,0,0,1-.4,6.2Z"/><path class="cls-7" d="M131.45,116.72h0l-1.39.24Z"/><path class="cls-5" d="M130.06,120.08a3.11,3.11,0,0,1-3.07-2.6,3.15,3.15,0,0,1,0-.52,3.12,3.12,0,0,1,2.61-3.07l.37-.06.91-.17a3.12,3.12,0,0,1,3.73,3.06h0a3.11,3.11,0,0,1-2.6,3.07l-1,.17-.38.07A2.92,2.92,0,0,1,130.06,120.08Z"/><path class="cls-7" d="M257.42,134.35V135a27.6,27.6,0,0,1-17.73-6.78,29.63,29.63,0,0,1-9.17-14.53A28.19,28.19,0,0,0,257.42,134.35Z"/><path class="cls-5" d="M257.42,138.15h0a30.86,30.86,0,0,1-19.73-7.53,32.51,32.51,0,0,1-10.15-16.08,3.12,3.12,0,0,1,6-1.65,25.14,25.14,0,0,0,23.92,18.34,3.12,3.12,0,0,1,3.09,3.12V135a3.11,3.11,0,0,1-3.11,3.11Z"/><path class="cls-5" d="M305.64,210.2a40.13,40.13,0,0,1-75.12,15.28l-.14-.25A40.15,40.15,0,0,1,255,167.45c.78-.22,1.58-.42,2.39-.57l.45-.1c1-.2,2-.36,3-.48a13.87,13.87,0,0,0,9.44-5,16.29,16.29,0,0,0-12.46-26.22h-.45a27.6,27.6,0,0,1-17.73-6.78,29.63,29.63,0,0,1-9.17-14.53c-.11-.38-.22-.77-.3-1.14s-.17-.81-.25-1.22-.15-.87-.22-1.32-.12-1-.17-1.56a59.85,59.85,0,0,1-68.69-17,39.61,39.61,0,0,1-29.44,25.24l-1.39.25c-.78.12-1.56.23-2.35.29-.35,0-.69.08-1,.1s-.92.06-1.38.07-.94,0-1.42,0h-.06c-1,0-2,0-3-.12-.15,0-.29,0-.45,0l-.81-.08-1-.12c-.35,0-.7-.1-1-.18a71.37,71.37,0,0,0-1.89,16.31v36.19a71.06,71.06,0,0,0,36.75,62.26,43.71,43.71,0,1,1-62-61.15,43.76,43.76,0,0,1,10.44-60.49c-.61-.44-1.21-.89-1.79-1.36h0c-.67-.54-1.3-1.09-1.93-1.66a39.91,39.91,0,0,1-4.42-4.77,39.36,39.36,0,0,1-8-18.82s0-.06,0-.09c-.06-.48-.13-1-.17-1.46a1.84,1.84,0,0,1,0-.33c0-.58-.1-1.15-.11-1.73s0-1.21,0-1.82a41.31,41.31,0,0,1,.45-6,39.82,39.82,0,0,1,7.9-18.25c.61-.78,1.25-1.53,1.9-2.26A39.35,39.35,0,0,1,123.8,38.55q1,0,2,.06c.42,0,.84,0,1.26.08a38.07,38.07,0,0,1,5.06.75l1.28.29c.5.13,1,.27,1.52.43s1,.29,1.5.46.89.31,1.34.49c.62.21,1.23.48,1.84.74.36.16.7.31,1.06.49l1,.48c.45.22.89.45,1.32.7s.77.42,1.12.65c.14.08.28.18.42.25a28.17,28.17,0,0,1,47,4.77,70.42,70.42,0,0,1,80.69,72.26,31.73,31.73,0,0,1,13.82,50A40.1,40.1,0,0,1,305.64,210.2Z"/><path class="cls-5" d="M87.61,81.55Zm0,0h0Zm-.1.51Zm.29,1.46a3.15,3.15,0,0,1-.29,1.18A2.85,2.85,0,0,0,87.8,83.52Zm-.3,1.18h0Zm13.31,21.44.18.13c.46.37,1,.77,1.65,1.25a3.11,3.11,0,0,1,0,5.06,40.62,40.62,0,0,0-9.7,56.18,3.11,3.11,0,0,1-.54,4.15,40.6,40.6,0,1,0,55.11,59.53,74.28,74.28,0,0,1-35-63V133.24a74.2,74.2,0,0,1,2-17,3.11,3.11,0,0,1,3.72-2.32c.25,0,.5.08.76.12l.9.11H120c.2,0,.4,0,.61.06h.14l.17,0h.22a34,34,0,0,0,4.07.09c.4,0,.79,0,1.17-.06l.19,0c.26,0,.51,0,.76-.06l.17,0c.77-.06,1.53-.18,2.11-.27.41-.07.83-.14,1.26-.23A36.42,36.42,0,0,0,158,90.42a3.12,3.12,0,0,1,5.32-.94,56.75,56.75,0,0,0,65.11,16.13,3.13,3.13,0,0,1,4.3,2.61c0,.46.07.91.14,1.36s.14.85.21,1.24.13.7.22,1.07a9.73,9.73,0,0,0,.25,1,26.75,26.75,0,0,0,8.22,13,24.29,24.29,0,0,0,15.72,6h0c.2,0,.39,0,.6,0a19.4,19.4,0,0,1,14.75,31.23,17,17,0,0,1-11.53,6.22c-1,.12-1.9.27-2.78.45l-.46.09c-.65.12-1.32.29-2.15.52a36.48,36.48,0,0,0-13.55,7,37.07,37.07,0,0,0-9.24,46.27l.09.17a.41.41,0,0,1,.07.11,37,37,0,0,0,69.29-14.09h0a36.77,36.77,0,0,0-18.14-35.71,3.11,3.11,0,0,1-.83-4.68,28.61,28.61,0,0,0-12.46-45.11,3.12,3.12,0,0,1-2.07-3,67.3,67.3,0,0,0-67.23-69.8,68.57,68.57,0,0,0-9.89.73,3.1,3.1,0,0,1-3.23-1.66,25.05,25.05,0,0,0-41.75-4.23,3.13,3.13,0,0,1-3.94.77l-.32-.19-.1-.06-.19-.12c-.27-.18-.61-.36-.9-.52-.47-.27-.84-.46-1.19-.63l-.1-.05c-.28-.15-.57-.29-.85-.42l-1-.45c-.58-.25-1.12-.48-1.63-.66l-.07,0c-.43-.16-.83-.31-1.25-.45s-.89-.29-1.33-.42-1-.28-1.44-.39-.8-.19-1.19-.28a33.68,33.68,0,0,0-4.64-.68h-.09c-.35,0-.69,0-1-.06h-.1c-.53,0-1.11,0-1.79,0a36.41,36.41,0,0,0-26.9,11.9c-.69.77-1.25,1.43-1.75,2.08a35.61,35.61,0,0,0-6.54,13.27,36.16,36.16,0,0,0-.74,3.56A37.7,37.7,0,0,0,87.46,78c0,.55,0,1.11,0,1.66s.06,1.12.1,1.64c0,0,0,.08,0,.12a1.15,1.15,0,0,1,0,.16c0,.45.1.88.15,1.31,0,0,0,.08,0,.12a36.37,36.37,0,0,0,7.32,17.33,37.17,37.17,0,0,0,4.06,4.38C99.68,105.19,100.2,105.64,100.81,106.14Zm17.84,144.57A46.84,46.84,0,0,1,86.32,170a46.85,46.85,0,0,1,9.46-60c-.28-.25-.55-.49-.81-.74a41.3,41.3,0,0,1-4.77-5.13,42.54,42.54,0,0,1-8.54-20.09,3.43,3.43,0,0,1-.08-.56c0-.43-.11-.85-.15-1.28a5.06,5.06,0,0,1-.05-.53c0-.6-.09-1.2-.11-1.81s0-1.24,0-1.9a44,44,0,0,1,.49-6.48c.23-1.43.51-2.83.86-4.16a42.07,42.07,0,0,1,7.66-15.55c.59-.75,1.25-1.54,2-2.42a42.65,42.65,0,0,1,31.53-14c.8,0,1.51,0,2.17.06.42,0,.9,0,1.39.09a42,42,0,0,1,5.43.8l1.37.32c.55.14,1.11.29,1.68.46s1,.32,1.6.51.93.32,1.4.5c.72.25,1.37.54,2,.82l1.16.52c.36.18.7.34,1,.52s.54.26.82.41a31.27,31.27,0,0,1,49.28,5.37,74.23,74.23,0,0,1,8.66-.51,73.5,73.5,0,0,1,73.5,74,34.85,34.85,0,0,1,15.15,51.31,43.57,43.57,0,0,1,18.29,39.84A43.26,43.26,0,0,1,227.8,227l-.09-.17-.07-.13a43.28,43.28,0,0,1,10.75-54.1,42.32,42.32,0,0,1,15.83-8.16c1-.28,1.81-.48,2.61-.63l.44-.09c1-.21,2.09-.38,3.25-.52a10.77,10.77,0,0,0,7.35-3.85,13.17,13.17,0,0,0-10.08-21.19l-.23,0h-.14a30.88,30.88,0,0,1-19.76-7.53,32.51,32.51,0,0,1-10.15-16.08c-.11-.37-.24-.83-.34-1.31,0-.15-.07-.3-.1-.46a63.08,63.08,0,0,1-65.25-15.61,42.85,42.85,0,0,1-10.73,13.51,42.19,42.19,0,0,1-19.05,9.1q-.72.15-1.47.27c-.69.11-1.58.24-2.53.32-.39,0-.76.08-1.15.1s-1,.07-1.51.09a41.14,41.14,0,0,1-4.68-.1,5.28,5.28,0,0,1-.55,0H120a68.2,68.2,0,0,0-1.22,12.84v36.19A68,68,0,0,0,153.89,229a3.12,3.12,0,0,1,1.55,2.15,3.08,3.08,0,0,1-.65,2.56,46.74,46.74,0,0,1-28.49,16.41A47.46,47.46,0,0,1,118.65,250.71Z"/><path class="cls-7" d="M84.71,83.44a39.36,39.36,0,0,0,8,18.82,38.19,38.19,0,0,1-7.79-17.65C84.81,84.22,84.75,83.83,84.71,83.44Z"/><path class="cls-5" d="M92.66,105.38a3.12,3.12,0,0,1-2.45-1.19,41.82,41.82,0,0,1-8.42-19.08c-.07-.44-.14-.91-.18-1.42A3.11,3.11,0,0,1,87.8,83a36.37,36.37,0,0,0,7.32,17.33,3.12,3.12,0,0,1-2.46,5Z"/><path class="cls-7" d="M125.28,117.43a1,1,0,0,1-.24,0h-1.18C124.34,117.46,124.81,117.45,125.28,117.43Z"/><path class="cls-5" d="M123.86,120.58a3.12,3.12,0,1,1,0-6.23c.45,0,.88,0,1.31,0a3.12,3.12,0,0,1,.72,6.17,3.74,3.74,0,0,1-.79.07C124.68,120.58,124.27,120.58,123.86,120.58Z"/><path class="cls-5" d="M123.86,120.57a3.12,3.12,0,1,1,0-6.23A36.38,36.38,0,0,0,160.2,78a3.12,3.12,0,0,1,6.23,0A42.62,42.62,0,0,1,123.86,120.57Z"/><path class="cls-8" d="M115.63,135v32.58a16.29,16.29,0,1,1,0-32.58Z"/><path class="cls-5" d="M112.52,138.52a13.19,13.19,0,0,0,0,25.62Zm3.11,32.22a19.41,19.41,0,0,1,0-38.82,3.12,3.12,0,0,1,3.12,3.12v32.58A3.12,3.12,0,0,1,115.63,170.74Z"/><path class="cls-7" d="M144.51,44.42a45.25,45.25,0,0,0,14.91,6.82,47,47,0,0,0,12.38,1.53"/><path class="cls-5" d="M171.19,55.89a49.9,49.9,0,0,1-12.55-1.64A48.37,48.37,0,0,1,142.7,47a3.12,3.12,0,1,1,3.63-5.07,41.86,41.86,0,0,0,13.87,6.33,43.23,43.23,0,0,0,11.56,1.43,3.12,3.12,0,1,1,.09,6.23Z"/><path class="cls-12" d="M98.61,81.12A3.12,3.12,0,0,1,95.5,78a28.39,28.39,0,0,1,28.36-28.36,3.12,3.12,0,1,1,0,6.23A22.16,22.16,0,0,0,101.73,78,3.12,3.12,0,0,1,98.61,81.12Z"/><path class="cls-13" d="M238.69,209.29a3.12,3.12,0,0,1-3.12-3.12A30.17,30.17,0,0,1,265.7,176a3.12,3.12,0,1,1,0,6.23,23.93,23.93,0,0,0-23.9,23.9A3.12,3.12,0,0,1,238.69,209.29Z"/><path class="cls-13" d="M89.43,213a3.12,3.12,0,0,1-3-2.44,30.23,30.23,0,0,1,4.7-23.82,3.12,3.12,0,1,1,5.11,3.57,23.93,23.93,0,0,0-3.73,18.89A3.11,3.11,0,0,1,90.11,213,3.23,3.23,0,0,1,89.43,213Z"/><path class="cls-13" d="M209,103.4a51.89,51.89,0,0,1-35.29-13.8,3.11,3.11,0,0,1,4.45-4.36c.69.71,16.78,16.6,42.31,10.55a3.12,3.12,0,0,1,1.44,6.07A56.11,56.11,0,0,1,209,103.4Z"/><path class="cls-13" d="M206.61,89.45a28.06,28.06,0,0,1-18.82-6.85,3.12,3.12,0,0,1,4.35-4.46c.28.26,6.45,6,17.07,4.94a3.12,3.12,0,0,1,.62,6.2A29.85,29.85,0,0,1,206.61,89.45Z"/><path class="cls-13" d="M239.28,74.17a3.15,3.15,0,0,1-2-.69,56.26,56.26,0,0,0-35.38-12.54,3.12,3.12,0,0,1,0-6.23,62.58,62.58,0,0,1,39.31,13.93,3.11,3.11,0,0,1-2,5.53Z"/><path class="cls-13" d="M257.7,100A3.11,3.11,0,0,1,254.77,98a55.83,55.83,0,0,0-7.32-13.79,3.11,3.11,0,0,1,5-3.66,62.16,62.16,0,0,1,8.14,15.33,3.12,3.12,0,0,1-1.87,4A3.28,3.28,0,0,1,257.7,100Z"/><path class="cls-5" d="M140.62,141a3.12,3.12,0,0,1-2.35-5.17,24.27,24.27,0,0,1,26.83-6.7,3.11,3.11,0,1,1-2.22,5.82,18,18,0,0,0-19.91,5A3.14,3.14,0,0,1,140.62,141Z"/><path class="cls-5" d="M232.89,141a3.12,3.12,0,0,1-2.35-1.07,18,18,0,0,0-19.91-5,3.11,3.11,0,1,1-2.22-5.82,24.26,24.26,0,0,1,26.82,6.7,3.12,3.12,0,0,1-2.34,5.17Z"/><path class="cls-10" d="M201.67,194.79a30.22,30.22,0,0,1-14.91,3.88,30.52,30.52,0,0,1-14.9-3.88"/><path class="cls-5" d="M186.76,201.79a33.74,33.74,0,0,1-16.42-4.28,3.12,3.12,0,1,1,3-5.44,27.5,27.5,0,0,0,13.38,3.49,27.17,27.17,0,0,0,13.37-3.48,3.11,3.11,0,1,1,3.08,5.41A33.34,33.34,0,0,1,186.76,201.79Z"/></g></g></svg>