<svg xmlns="http://www.w3.org/2000/svg" xmlns:xlink="http://www.w3.org/1999/xlink" viewBox="0 0 72.04 75.81"><defs><style>.cls-1,.cls-7{fill:none;}.cls-2{fill:#f2545b;}.cls-3{clip-path:url(#clip-path);}.cls-4{fill:#b4bbe8;}.cls-5{fill:#33475b;}.cls-6{fill:#dbae60;}.cls-7{fill-rule:evenodd;}.cls-8{fill:#f0dcd5;}.cls-9{fill:#f5c26b;}.cls-10{fill:#f7eeea;}.cls-11{fill:#fff;}.cls-12{fill:#e8cbc0;}</style><clipPath id="clip-path"><path class="cls-1" d="M72,36a35.6,35.6,0,0,1-.69,7,33.72,33.72,0,0,1-.86,3.43c-.34,1.13-.74,2.24-1.19,3.33A34.39,34.39,0,0,1,67.79,53c-.56,1-1.16,2-1.82,3a32.52,32.52,0,0,1-2.1,2.84,36.91,36.91,0,0,1-5,5A32.52,32.52,0,0,1,56,66c-1,.66-2,1.26-3,1.82a34.39,34.39,0,0,1-3.19,1.51c-1.09.45-2.2.85-3.33,1.19a33.72,33.72,0,0,1-3.43.86A35.6,35.6,0,0,1,36,72a35.6,35.6,0,0,1-7-.69,33.54,33.54,0,0,1-3.42-.86c-1.13-.34-2.24-.74-3.33-1.19A34.57,34.57,0,0,1,19,67.79C18,67.23,17,66.63,16,66a34.1,34.1,0,0,1-2.84-2.1A36.5,36.5,0,0,1,6.07,56c-.65-1-1.26-2-1.82-3s-1.06-2.1-1.51-3.19-.85-2.2-1.19-3.33S.92,44.21.69,43.05s-.4-2.32-.52-3.5S0,37.2,0,36s.06-2.35.17-3.53S.46,30.15.69,29s.52-2.3.86-3.42.74-2.24,1.19-3.33,1-2.16,1.51-3.2S5.42,17,6.07,16s1.36-1.93,2.11-2.84,1.54-1.79,2.37-2.62,1.71-1.62,2.62-2.37S15,6.73,16,6.07s2-1.26,3-1.82,2.11-1.06,3.2-1.51,2.2-.85,3.33-1.19S27.84.92,29,.69s2.33-.4,3.5-.52S34.84,0,36,0s2.36.06,3.53.17,2.34.29,3.5.52,2.3.52,3.43.86,2.24.74,3.33,1.19S52,3.7,53,4.25s2,1.17,3,1.82a36.29,36.29,0,0,1,7.84,7.1A34.1,34.1,0,0,1,66,16c.66,1,1.26,2,1.82,3a34.57,34.57,0,0,1,1.51,3.2c.45,1.09.85,2.2,1.19,3.33A33.54,33.54,0,0,1,71.35,29,35.6,35.6,0,0,1,72,36Z"/></clipPath></defs><title>brioP1</title><g id="Layer_2" data-name="Layer 2"><g id="Layer_1-2" data-name="Layer 1"><path class="cls-2" d="M72,36a35.6,35.6,0,0,1-.69,7,33.72,33.72,0,0,1-.86,3.43c-.34,1.13-.74,2.24-1.19,3.33A34.39,34.39,0,0,1,67.79,53c-.56,1-1.16,2-1.82,3a32.52,32.52,0,0,1-2.1,2.84,36.91,36.91,0,0,1-5,5A32.52,32.52,0,0,1,56,66c-1,.66-2,1.26-3,1.82a34.39,34.39,0,0,1-3.19,1.51c-1.09.45-2.2.85-3.33,1.19a33.72,33.72,0,0,1-3.43.86A35.6,35.6,0,0,1,36,72a35.6,35.6,0,0,1-7-.69,33.54,33.54,0,0,1-3.42-.86c-1.13-.34-2.24-.74-3.33-1.19A34.57,34.57,0,0,1,19,67.79C18,67.23,17,66.63,16,66a34.1,34.1,0,0,1-2.84-2.1A36.5,36.5,0,0,1,6.07,56c-.65-1-1.26-2-1.82-3s-1.06-2.1-1.51-3.19-.85-2.2-1.19-3.33S.92,44.21.69,43.05s-.4-2.32-.52-3.5S0,37.2,0,36s.06-2.35.17-3.53S.46,30.15.69,29s.52-2.3.86-3.42.74-2.24,1.19-3.33,1-2.16,1.51-3.2S5.42,17,6.07,16s1.36-1.93,2.11-2.84,1.54-1.79,2.37-2.62,1.71-1.62,2.62-2.37S15,6.73,16,6.07s2-1.26,3-1.82,2.11-1.06,3.2-1.51,2.2-.85,3.33-1.19S27.84.92,29,.69s2.33-.4,3.5-.52S34.84,0,36,0s2.36.06,3.53.17,2.34.29,3.5.52,2.3.52,3.43.86,2.24.74,3.33,1.19S52,3.7,53,4.25s2,1.17,3,1.82a36.29,36.29,0,0,1,7.84,7.1A34.1,34.1,0,0,1,66,16c.66,1,1.26,2,1.82,3a34.57,34.57,0,0,1,1.51,3.2c.45,1.09.85,2.2,1.19,3.33A33.54,33.54,0,0,1,71.35,29,35.6,35.6,0,0,1,72,36Z"/><g class="cls-3"><path class="cls-4" d="M33.72,41.84h4.61A18.89,18.89,0,0,1,57.22,60.73V75.21H14.82V60.73A18.9,18.9,0,0,1,33.72,41.84Z"/><path class="cls-5" d="M15.43,74.61H56.62V60.73A18.32,18.32,0,0,0,38.33,42.44H33.72A18.31,18.31,0,0,0,15.43,60.73Zm41.79,1.2H14.82a.6.6,0,0,1-.6-.6V60.73a19.52,19.52,0,0,1,19.5-19.49h4.61A19.51,19.51,0,0,1,57.82,60.73V75.21A.6.6,0,0,1,57.22,75.81Z"/><path class="cls-5" d="M25.44,75.81a.6.6,0,0,1-.6-.6V65.15a.6.6,0,1,1,1.2,0V75.21A.6.6,0,0,1,25.44,75.81Z"/><path class="cls-5" d="M46.6,75.81a.6.6,0,0,1-.6-.6V65.15a.61.61,0,0,1,1.21,0V75.21A.6.6,0,0,1,46.6,75.81Z"/></g><path class="cls-6" d="M29.08,46.6a.61.61,0,0,1-.45-.2,14.19,14.19,0,0,1-2-2.81A.6.6,0,0,1,27.72,43a13.62,13.62,0,0,0,1.8,2.57.61.61,0,0,1,0,.85A.62.62,0,0,1,29.08,46.6Z"/><path class="cls-6" d="M30.36,44.35a.58.58,0,0,1-.54-.34,14.67,14.67,0,0,1-1.22-3.54.6.6,0,1,1,1.18-.25,13.63,13.63,0,0,0,1.11,3.26.6.6,0,0,1-.27.81A.62.62,0,0,1,30.36,44.35Z"/><path class="cls-6" d="M41.22,47a.62.62,0,0,1-.26-.06.6.6,0,0,1-.29-.8,12,12,0,0,0,.81-2.34.62.62,0,0,1,.73-.45.61.61,0,0,1,.44.73,12.79,12.79,0,0,1-.89,2.57A.6.6,0,0,1,41.22,47Z"/><path class="cls-6" d="M42.4,42.12h0a.61.61,0,0,1-.55-.66,11.91,11.91,0,0,0,.05-1.2.61.61,0,0,1,1.21,0c0,.43,0,.87-.06,1.31A.6.6,0,0,1,42.4,42.12Z"/><path class="cls-7" d="M0,36A35.89,35.89,0,0,1,2.74,22.24,36.53,36.53,0,0,1,6.07,16,36,36,0,0,1,16,6.07a36.53,36.53,0,0,1,6.23-3.33,36,36,0,0,1,27.57,0A36.43,36.43,0,0,1,56,6.07a35.57,35.57,0,0,1,5.46,4.48A36,36,0,0,1,69.3,22.24a35.29,35.29,0,0,1,2,6.75,36.16,36.16,0,0,1,0,14.06,35.6,35.6,0,0,1-2,6.76,36.15,36.15,0,0,1-7.81,11.68A36.15,36.15,0,0,1,49.81,69.3a35.6,35.6,0,0,1-6.76,2,36.16,36.16,0,0,1-14.06,0A36.07,36.07,0,0,1,16,66a35,35,0,0,1-5.46-4.48A35.57,35.57,0,0,1,6.07,56a35.88,35.88,0,0,1-5.38-13A36,36,0,0,1,0,36Z"/><path class="cls-8" d="M36,44.51A13.74,13.74,0,0,1,22.27,30.77v-7a13.74,13.74,0,1,1,27.47,0v7A13.74,13.74,0,0,1,36,44.51Z"/><path class="cls-5" d="M36,10.65A13.15,13.15,0,0,0,22.87,23.79v7A13.15,13.15,0,0,0,36,43.91h0A13.15,13.15,0,0,0,49.14,30.77v-7A13.15,13.15,0,0,0,36,10.65Zm0,34.46A14.35,14.35,0,0,1,21.67,30.77v-7a14.34,14.34,0,1,1,28.67,0v7A14.35,14.35,0,0,1,36,45.11Z"/><path class="cls-8" d="M35.05,27.28,34,30.83A1.1,1.1,0,0,0,35,32.25h1.49"/><path class="cls-5" d="M36.51,32.85H35a1.7,1.7,0,0,1-1.63-2.2l1.08-3.55a.62.62,0,0,1,.76-.4.61.61,0,0,1,.39.76L34.54,31a.5.5,0,0,0,.48.65h1.49a.6.6,0,1,1,0,1.2Z"/><path class="cls-9" d="M49.74,29.77h0l-1.26,3.39A4.35,4.35,0,0,1,42,35.29a4.37,4.37,0,0,0-2.36-.7H32.32a4.37,4.37,0,0,0-2.36.7,4.33,4.33,0,0,1-6.43-2.12l-1.26-3.39a17.72,17.72,0,0,0-.49,4.15A18,18,0,0,0,36,51.48,17.94,17.94,0,0,0,49.74,29.77Z"/><path class="cls-5" d="M22.48,32.08c-.06.61-.1,1.23-.1,1.85A17.35,17.35,0,0,0,36,50.86,17.33,17.33,0,0,0,49.62,33.93a17.64,17.64,0,0,0-.1-1.92L49,33.38a4.94,4.94,0,0,1-7.32,2.42,3.71,3.71,0,0,0-2-.6H32.32a3.65,3.65,0,0,0-2,.6A4.94,4.94,0,0,1,23,33.38ZM36,52.08h-.13a18.56,18.56,0,0,1-14.2-22.43.59.59,0,0,1,.55-.46.59.59,0,0,1,.6.39L24.09,33a3.75,3.75,0,0,0,5.54,1.83,4.93,4.93,0,0,1,2.69-.8h7.33a4.93,4.93,0,0,1,2.69.8A3.75,3.75,0,0,0,47.88,33l1.26-3.39a.6.6,0,0,1,.35-.35l0,0a.6.6,0,0,1,.49,0,.64.64,0,0,1,.3.4,18.2,18.2,0,0,1,.51,4.3,18.55,18.55,0,0,1-14.7,18.14Z"/><path class="cls-6" d="M26.29,41.86a.6.6,0,0,1-.57-.4A15.46,15.46,0,0,1,25,38.08a.6.6,0,1,1,1.2-.12,13.52,13.52,0,0,0,.69,3.1.61.61,0,0,1-.37.77A.69.69,0,0,1,26.29,41.86Z"/><path class="cls-6" d="M45.25,43.89a.57.57,0,0,1-.22,0,.6.6,0,0,1-.33-.79,13.68,13.68,0,0,0,1-5.2.6.6,0,0,1,1.2,0,14.94,14.94,0,0,1-1.1,5.66A.6.6,0,0,1,45.25,43.89Z"/><path class="cls-10" d="M44,29.79H41.22a2.1,2.1,0,0,1-2.1-2.1V24.78h7v2.91A2.1,2.1,0,0,1,44,29.79Z"/><path class="cls-5" d="M39.72,25.38v2.31a1.5,1.5,0,0,0,1.5,1.49H44a1.5,1.5,0,0,0,1.5-1.49V25.38Zm4.25,5H41.22a2.7,2.7,0,0,1-2.7-2.7V24.78a.6.6,0,0,1,.6-.61h7a.6.6,0,0,1,.6.61v2.91A2.7,2.7,0,0,1,44,30.39Z"/><path class="cls-5" d="M43.57,27.28a1,1,0,0,1-1,1,.9.9,0,0,1-.68-.28,1,1,0,0,1,0-1.38.9.9,0,0,1,.68-.28,1,1,0,0,1,1,1Z"/><path class="cls-5" d="M46.07,25.38a.6.6,0,0,1-.11-1.2l3.64-.64a.6.6,0,0,1,.21,1.19l-3.64.64Z"/><path class="cls-10" d="M30.57,29.79H27.81a2.1,2.1,0,0,1-2.1-2.1V24.78h6.95v2.91A2.1,2.1,0,0,1,30.57,29.79Z"/><path class="cls-5" d="M26.32,25.38v2.31a1.49,1.49,0,0,0,1.49,1.49h2.76a1.49,1.49,0,0,0,1.49-1.49V25.38Zm4.25,5H27.81a2.7,2.7,0,0,1-2.7-2.7V24.78a.6.6,0,0,1,.6-.61h6.95a.61.61,0,0,1,.61.61v2.91A2.71,2.71,0,0,1,30.57,30.39Z"/><path class="cls-5" d="M30.16,27.28a1,1,0,1,1-.28-.69A.94.94,0,0,1,30.16,27.28Z"/><path class="cls-5" d="M25.91,25.38H25.8l-3.64-.64a.61.61,0,0,1-.49-.7.6.6,0,0,1,.7-.49l3.64.64a.6.6,0,0,1,.49.7A.61.61,0,0,1,25.91,25.38Z"/><path class="cls-5" d="M39.12,25.38H32.66a.61.61,0,0,1,0-1.21h6.46a.61.61,0,0,1,0,1.21Z"/><path class="cls-9" d="M49.73,29.14V23.79a13.71,13.71,0,0,0-.8-4.64,53.91,53.91,0,0,1-5.92.33c-7.25,0-13.76-1.43-18.19-3.68a13.69,13.69,0,0,0-2.56,8v2.32a7.48,7.48,0,0,1-4.34-6.8,7.56,7.56,0,0,1,.93-3.63,4.46,4.46,0,0,0,.1-4.31,6.41,6.41,0,0,1-.78-3.21,6.53,6.53,0,0,1,6-6.35h.24a6.44,6.44,0,0,1,4.71,1.82,8.5,8.5,0,0,0,7.35,2.3,13.65,13.65,0,0,1,3.08-.19A14.26,14.26,0,0,1,53.07,18.5c0,.22,0,.45,0,.67A14.13,14.13,0,0,1,49.73,29.14Z"/><path class="cls-5" d="M48.93,18.55a.59.59,0,0,1,.56.4,14.12,14.12,0,0,1,.84,4.84v3.55a13.54,13.54,0,0,0,2.19-8.14c0-.26,0-.45-.05-.63A13.66,13.66,0,0,0,39.58,6.33a13.24,13.24,0,0,0-3,.18,9,9,0,0,1-7.87-2.46A5.83,5.83,0,0,0,24.48,2.4h-.22a5.92,5.92,0,0,0-5.49,5.76,5.86,5.86,0,0,0,.71,2.91,5.08,5.08,0,0,1-.1,4.9,6.89,6.89,0,0,0,2.28,9.11v-1.3a14.19,14.19,0,0,1,2.67-8.34.61.61,0,0,1,.76-.19c4.52,2.3,11.05,3.62,17.92,3.62a51.22,51.22,0,0,0,5.85-.33Zm.8,11.19a.52.52,0,0,1-.21,0,.6.6,0,0,1-.39-.56V23.79a13.05,13.05,0,0,0-.62-4,52.61,52.61,0,0,1-5.5.28c-6.82,0-13.33-1.28-18-3.51a13,13,0,0,0-2.16,7.22v2.32a.58.58,0,0,1-.28.5.6.6,0,0,1-.58,0,8.08,8.08,0,0,1-3.67-11.26,3.87,3.87,0,0,0,.09-3.73A7.1,7.1,0,0,1,24.18,1.21h.25a7,7,0,0,1,5.16,2,7.83,7.83,0,0,0,6.82,2.13,15.71,15.71,0,0,1,3.22-.2,14.88,14.88,0,0,1,14,13.32c0,.2,0,.42,0,.7a14.77,14.77,0,0,1-3.53,10.39A.6.6,0,0,1,49.73,29.74Z"/><path class="cls-11" d="M20.7,8.94a.6.6,0,0,1-.6-.6,4.53,4.53,0,0,1,4.52-4.53.61.61,0,1,1,0,1.21A3.32,3.32,0,0,0,21.3,8.34.6.6,0,0,1,20.7,8.94Z"/><path class="cls-12" d="M22.27,24.13v6.3a3.15,3.15,0,0,1,0-6.3Z"/><path class="cls-5" d="M21.67,24.81a2.54,2.54,0,0,0,0,4.94Zm.6,6.22a3.75,3.75,0,1,1,0-7.5.6.6,0,0,1,.6.6v6.3A.6.6,0,0,1,22.27,31Z"/><path class="cls-12" d="M49.74,30.43v-6.3a3.15,3.15,0,0,1,0,6.3Z"/><path class="cls-5" d="M50.34,24.81v4.94a2.54,2.54,0,0,0,0-4.94ZM49.74,31a.6.6,0,0,1-.6-.6v-6.3a.6.6,0,0,1,.6-.6,3.75,3.75,0,1,1,0,7.5Z"/><path class="cls-6" d="M43.35,17.05a46.84,46.84,0,0,1-5.78-.36.61.61,0,0,1-.52-.68.6.6,0,0,1,.67-.52,44.37,44.37,0,0,0,10.1.13A.6.6,0,1,1,48,16.81,44,44,0,0,1,43.35,17.05Z"/><path class="cls-6" d="M33.59,16h-.13a34.92,34.92,0,0,1-6.66-2.06.59.59,0,0,1-.3-.79.6.6,0,0,1,.8-.3,35.09,35.09,0,0,0,6.42,2,.62.62,0,0,1,.46.72A.61.61,0,0,1,33.59,16Z"/><path class="cls-6" d="M41.14,14.18A27.74,27.74,0,0,1,32,12.69a.6.6,0,1,1,.43-1.12A27.31,27.31,0,0,0,41.14,13a.6.6,0,1,1,0,1.2Z"/><path class="cls-6" d="M47,12.45a.61.61,0,0,1-.49-.25,9,9,0,0,0-6.82-3.26.6.6,0,0,1,0-1.2,10.08,10.08,0,0,1,7.79,3.75.61.61,0,0,1-.48,1Z"/><path class="cls-6" d="M27.05,23.27a.6.6,0,0,1-.36-1.08A4.67,4.67,0,0,1,32,22a.6.6,0,0,1,.18.83.59.59,0,0,1-.83.17,3.48,3.48,0,0,0-4,.12A.62.62,0,0,1,27.05,23.27Z"/><path class="cls-6" d="M45,23.27a.62.62,0,0,1-.36-.12,3.48,3.48,0,0,0-4-.12.59.59,0,0,1-.83-.17A.61.61,0,0,1,40,22a4.68,4.68,0,0,1,5.34.16A.6.6,0,0,1,45,23.27Z"/><path class="cls-5" d="M36,39a6.55,6.55,0,0,1-3.17-.83.6.6,0,0,1,.59-1.05,5.32,5.32,0,0,0,5.17,0,.6.6,0,0,1,.59,1.05A6.47,6.47,0,0,1,36,39Z"/></g></g></svg>